<svg width="250" height="235" viewBox="0 0 250 235" fill="none" xmlns="http://www.w3.org/2000/svg">
<g clip-path="url(#clip0)">
<path fill-rule="evenodd" clip-rule="evenodd" d="M86.4687 196.126L65.05 235C26.286 213.773 0 172.6 0 125.287C0 56.252 55.964 0.287003 125 0.287003C194.036 0.287003 250 56.252 250 125.287C250 172.287 224.061 213.229 185.717 234.577L164.296 195.7C188.596 181.97 205 155.901 205 126C205 81.8172 169.183 46 125 46C80.8172 46 45 81.8172 45 126C45 156.214 61.749 182.515 86.4687 196.126Z" fill="#008000"/>
<path fill-rule="evenodd" clip-rule="evenodd" d="M125 0.286987C194.036 0.286987 250 56.252 250 125.287H204.997C204.614 81.4325 168.945 46 125 46C80.8172 46 45 81.8172 45 126C45 156.214 61.749 182.515 86.4688 196.126L65.05 235C26.286 213.773 0 172.6 0 125.287C0 56.252 55.964 0.286987 125 0.286987Z" fill="#9ACD32"/>
</g>
<g clip-path="url(#clip1)">
<path fill-rule="evenodd" clip-rule="evenodd" d="M125 0.287003C148.126 0.287003 169.786 6.56801 188.366 17.516L165.579 57.0409C153.682 50.025 139.811 46 125 46C80.8172 46 45 81.8172 45 126C45 155.881 61.3824 181.936 85.6554 195.672L63.485 234.128C25.58 212.659 -1.52588e-05 171.96 -1.52588e-05 125.287C-1.52588e-05 56.252 55.964 0.287003 125 0.287003Z" fill="#FFFF00"/>
</g>
<g clip-path="url(#clip2)">
<path fill-rule="evenodd" clip-rule="evenodd" d="M-3.05176e-05 125.287C-3.05176e-05 79.115 25.034 38.789 62.27 17.143L84.5776 56.9487C60.8987 70.8401 45 96.5634 45 126C45 155.881 61.3824 181.936 85.6554 195.672L63.485 234.128C25.58 212.659 -3.05176e-05 171.96 -3.05176e-05 125.287Z" fill="#FFA500"/>
</g>
<g clip-path="url(#clip3)">
<path fill-rule="evenodd" clip-rule="evenodd" d="M63.485 234.128C25.58 212.659 -3.05176e-05 171.96 -3.05176e-05 125.287L45.0031 125.287C45.001 125.524 45 125.762 45 126C45 155.881 61.3824 181.936 85.6554 195.672L63.485 234.128Z" fill="#FF0000"/>
</g>
<defs>
<clipPath id="clip0">
<rect width="250" height="235" fill="white" transform="translate(250 235) rotate(-180)"/>
</clipPath>
<clipPath id="clip1">
<rect width="250" height="235" fill="white" transform="translate(250 235) rotate(-180)"/>
</clipPath>
<clipPath id="clip2">
<rect width="250" height="235" fill="white" transform="translate(250 235) rotate(-180)"/>
</clipPath>
<clipPath id="clip3">
<rect width="250" height="235" fill="white" transform="translate(250 235) rotate(-180)"/>
</clipPath>
</defs>
</svg>
